<?xml version="1.0"?>
<svg width="1174.38" height="1157.67" xmlns="http://www.w3.org/2000/svg" xmlns:svg="http://www.w3.org/2000/svg" enable-background="new 0 0 1174.38 1157.67" version="1.0" xml:space="preserve">

 <g class="layer">
  <title>Layer 1</title>
  <path d="m121.21,685.78c-7.71,-26.81 -14.16,-54.53 -17.17,-82.29c-4.03,-37.08 -2.15,-74.35 4.07,-111.07c2.9,-17.14 6.3,-34.08 11.45,-50.7c24.86,-80.19 72.74,-153.01 134.64,-209.51c10.9,-9.95 22.41,-18.82 33.98,-27.94c13.98,-11.02 28.32,-20.91 43.19,-30.67c9.82,-6.44 19.72,-13.08 30.13,-18.55l-0.29,-3.04c-2.28,-23.94 10.29,-50.91 23.11,-70.41c18.02,-27.41 43.04,-49.52 72.79,-63.51c17.92,-8.43 36.37,-13.67 55.7,-17.65c1.58,-0.26 0.81,-0.32 2.31,0.17c-0.37,7 -2.26,14.48 -3.88,21.28c-11.98,50.25 -44.09,93.41 -88.08,120.26c-11.86,7.24 -25.16,13.59 -38.7,16.86c-5.58,1.35 -12.02,2.21 -17.64,0.68l-1.03,-0.31c-42.3,32.26 -84.03,66.18 -119.08,106.41c-27.26,31.29 -51.28,65.4 -70.34,102.31c-10.51,20.35 -19.34,41.72 -27.34,63.16c-18.83,50.51 -30.46,103.99 -31.8,157.99c-0.56,22.53 -0.02,45.09 2.17,67.53l4.49,37.34l-2.68,-8.34z" fill="#79745c" id="svg_1" transform="matrix(1, 0, 0, 1, 0, 0)"/>
  <path d="m1047.81,701.4l0.08,-1.19c0.63,-8.31 2.98,-16.92 4.19,-25.23c2.6,-17.85 4.08,-35.54 4.51,-53.57c2.09,-87.09 -17.74,-176.54 -58.14,-253.85c-17.83,-34.1 -40.58,-66.71 -65.27,-96.19c-25.83,-30.85 -54.9,-57.18 -86.05,-82.49l-34.2,-27.04l-0.75,0.16c-21.09,4.07 -51.81,-13.83 -68.76,-25.52c-43.02,-29.67 -73.12,-75.44 -82.43,-126.92c-0.57,-3.17 -1.21,-6.34 -1.36,-9.56l15.35,3.39c16.62,4.7 33.02,10.71 48.24,18.94c32.95,17.82 60.07,44.79 78.29,77.46c7.76,13.91 13.64,28.57 15.79,44.42c0.52,3.83 1.18,8.89 0.08,12.61l-1.37,3.74c27.03,7.53 52.41,24.86 74.27,42.05c29.36,23.07 55.76,48.61 79.29,77.65c17.74,21.9 33.51,45.65 47.34,70.18c33.45,59.31 55.25,127.96 57.22,196.27c1.2,41.36 -4.85,83.11 -16,122.91l-6.67,21.27c-1.12,3.45 -2.04,7.24 -3.65,10.51z" fill="#79745c" id="svg_2" transform="matrix(1, 0, 0, 1, 0, 0)"/>
  <path d="m298.87,175.76c-13.43,-19.48 -21.04,-42.63 -20.37,-66.31c1.04,-37.21 22.92,-70.3 49.12,-95.26l1.29,-0.08l3.38,7.95c13.34,34.6 20.39,70.77 4.64,105.89c-7.31,16.31 -17.49,31.2 -30.14,43.85c-1.81,1.81 -4.1,4.65 -6.49,5.56l-1.43,-1.6z" fill="#397367" id="svg_3" transform="matrix(1, 0, 0, 1, 0, 0)"/>
  <path d="m877.73,172.42l-3.18,3.71c-3.54,-2.82 -6.68,-7.06 -9.61,-10.52c-11.06,-13.06 -21.55,-27.12 -28.11,-43.06c-14.93,-36.31 -3.48,-73.83 10.85,-108.2c22.17,21.67 44.08,48.17 49.61,79.64c3.34,19.04 0.6,40.78 -7.48,58.34c-3.29,7.15 -7.58,13.66 -12.08,20.09z" fill="#397367" id="svg_4" transform="matrix(1, 0, 0, 1, 0, 0)"/>
  <path d="m947.97,241.1l-1.37,1.03l-0.93,-0.36c-2.91,-5.8 -6.72,-11.08 -10,-16.67c-8.17,-13.89 -14.42,-28.62 -17.84,-44.41c-8.16,-37.64 10.57,-74.97 30.43,-105.64c18.41,20.67 31.49,51.27 33.21,78.88c2.01,32.4 -12.44,63.31 -33.5,87.17z" fill="#397367" id="svg_5" transform="matrix(1, 0, 0, 1, 0, 0)"/>
  <path d="m228.8,237.43l-1.29,0.87c-3.77,-3.05 -7.11,-7.63 -10.02,-11.52c-10.19,-13.62 -17.73,-28.92 -21.33,-45.61c-8.41,-39.01 8.93,-73.69 29.55,-105.48c3.24,3.39 5.94,8.03 8.56,11.97c12.32,18.55 22.99,39.15 25.52,61.54c3.74,32.93 -11.14,63.1 -30.99,88.23z" fill="#397367" id="svg_6" transform="matrix(1, 0, 0, 1, 0, 0)"/>
  <path d="m1014.64,319.42c-2.92,-4.08 -5.29,-8.73 -7.7,-13.12c-8.97,-16.37 -15.44,-34.38 -16.66,-53.16c-0.62,-9.47 -0.33,-19.02 1.8,-28.31c5.66,-24.59 22.1,-46.45 38.46,-65.1l1.48,-0.02c11.24,17.98 19.51,37.44 22.12,58.64c2.14,17.35 0.12,36.61 -6.94,52.67c-7.8,17.74 -20.77,33.18 -32.56,48.4z" fill="#397367" id="svg_7"/>
  <path d="m164.31,317.91c-11.6,-12 -24.25,-23.91 -32.69,-38.43c-4.84,-8.34 -8.02,-17.53 -9.99,-26.94c-6.71,-32.13 5.23,-65.92 22.58,-92.63c17.63,16.47 32.81,40.32 39.46,63.52c5.93,20.69 5.88,42.52 -1.91,62.72c-4.25,11.04 -10.47,21.39 -16.22,31.7l-1.23,0.06z" fill="#397367" id="svg_8" transform="matrix(1, 0, 0, 1, 0, 0)"/>
  <path d="m391.1,264.12c-35.59,3.82 -66.44,-6.03 -98.5,-20.28c24.58,-26.31 52.55,-45.15 88.94,-49.01c5.81,-0.86 12.71,-0.33 18.53,0.25c28.44,2.82 53.84,15.8 78.12,30.06c-5.22,4.57 -11.22,8.38 -17.03,12.15c-21.49,13.96 -44.5,23.54 -70.06,26.83z" fill="#397367" id="svg_9" transform="matrix(1, 0, 0, 1, 0, 0)"/>
  <path d="m804.22,266c-41.39,-0.26 -76.45,-16.84 -108.86,-41.46c24.86,-15.42 50.95,-26.95 80.4,-29.1l11.3,-0.07c30.11,1.63 56.63,15.03 80.04,33.31c5.59,4.36 11.31,8.68 16.05,13.98c-12.46,5.29 -24.79,11.27 -37.65,15.53c-13.27,4.41 -27.34,7.01 -41.28,7.81z" fill="#397367" id="svg_10" transform="matrix(1, 0, 0, 1, 0, 0)"/>
  <path d="m1059.13,412.27c-7.23,-21.41 -15.09,-40.01 -13.16,-63.25c0.9,-10.82 4.6,-20.95 9.23,-30.67c10.22,-21.44 25.47,-40.41 43.67,-55.7c1.66,3.3 2.61,7.54 3.73,11.11c3.63,11.51 6.56,22.98 7.4,35.07c2,28.77 -4.42,55 -24.32,76.51c-8.56,9.26 -18.26,17.4 -26.55,26.93z" fill="#397367" id="svg_11"/>
  <path d="m114.64,410.81c-0.41,0.91 -0.83,1.49 -1.51,2.22c-5,-4.98 -9.26,-10.8 -13.78,-16.23c-9.87,-11.87 -20,-22.81 -26.41,-37.1c-13.85,-30.86 -7.25,-65.93 4.05,-96.34c17.63,16.79 35.85,36.13 45.29,58.84c12.84,30.89 4.49,59.09 -7.64,88.61z" fill="#397367" id="svg_12" transform="matrix(1, 0, 0, 1, 0, 0)"/>
  <path d="m889.71,352.86c-24.83,-1.9 -49.14,-13.74 -68.68,-28.77c-5.58,-4.29 -11.25,-8.77 -15.96,-14.03l27.53,-9.72c15.42,-5.1 30.92,-8.8 47.14,-9.93l10.52,-0.06c8.24,0.55 16.27,1.73 24.07,4.53c18.6,6.66 35.25,21.29 48.1,36.05c-23.24,13.28 -45.46,22.87 -72.72,21.93z" fill="#397367" id="svg_13" transform="matrix(1, 0, 0, 1, 0, 0)"/>
  <path d="m297.95,352.25l-2.05,0.42c-25.27,4.71 -49.24,-0.29 -72.12,-11.56c-4.87,-2.4 -9.92,-4.7 -14.41,-7.77l2.87,-4.05c17.86,-22.76 39.57,-34.21 68.12,-37.66c3.18,-0.9 8.7,-0.51 12.08,-0.5c27.67,0.06 53.55,8.83 78.03,21.07c-21.76,18.2 -44.75,32.96 -72.52,40.05z" fill="#397367" id="svg_14" transform="matrix(1, 0, 0, 1, 0, 0)"/>
  <path d="m986.85,528.2l-67.43,84.51l-19.25,23.19c-3.56,4.2 -9.55,9.63 -11.85,14.58c-0.65,1.4 -0.49,2.88 0.11,4.28c0.64,1.51 1.77,2.51 3.28,3.1c4.8,1.86 12.56,-2.06 16.92,-4.01c18.77,-8.4 35.9,-19.48 52.62,-31.37l14.38,-10.61c3.28,-2.5 6.61,-5.43 10.44,-7.02l0.92,-0.35c3.48,-1.36 7.81,-1.62 11.41,-0.47c4.65,1.49 8.44,4.95 10.63,9.29c3.56,7.09 0.94,17.73 -4.12,23.51c-4.72,5.4 -11.63,9.58 -17.31,13.96l-47.02,34.4c-8,5.7 -16.24,11.03 -23.89,17.19c-9.19,7.39 -18.08,15.56 -26.2,24.11c-11.26,11.84 -21.54,24.46 -33.39,35.76l-28.48,25.4c-7.39,6 -15.44,11.36 -22.16,18.13c-16.88,17 -27.09,38.72 -33.36,61.6c-9.93,36.26 -11.09,74.01 -6.77,111.23l2.79,18.82c0.54,2.8 2.53,9.18 1.64,11.72l-10.23,4.29c-90.29,36.71 -195.5,42.26 -289.66,18.14c-23.69,-6.07 -46.28,-14.28 -68.78,-23.78c0.96,-2.44 1.52,-5.06 2.12,-7.61c10.41,-43.73 9.94,-91.08 -2.72,-134.24c-5.93,-20.21 -14.92,-40.43 -28.85,-56.49c-8,-9.23 -17.48,-16.24 -27.02,-23.75c-9.1,-7.17 -18.14,-14.64 -26.38,-22.78c-14.24,-14.07 -26.17,-30.01 -40.28,-44.11c-8.37,-8.36 -17.74,-15.56 -27.39,-22.37c-22.2,-15.68 -45.02,-29.8 -65.91,-47.36c-5.83,-4.9 -13.18,-10.64 -17.05,-17.2c-2.89,-4.9 -3.51,-9.83 -1.86,-15.3c1.3,-4.3 4.15,-8.52 8.28,-10.5c5.09,-2.44 10.91,-2.27 16.1,-0.25c8.88,3.45 17.37,10.96 25.12,16.48c15.93,11.37 32.87,21.99 50.28,30.92c3.57,1.83 7.59,4.43 11.4,5.52c0.9,0.26 1.28,0.46 2.08,-0.17c1.48,-1.16 2.17,-2.86 2.36,-4.69c0.93,-9.08 -11.25,-18.93 -16.9,-25.6c-20.06,-23.65 -38.65,-48.72 -56.37,-74.16c-8.12,-11.65 -17.03,-23.04 -22.48,-36.26c-1.55,-3.77 -2.45,-8.19 -2,-12.27c0.58,-5.15 3.16,-10.45 7.43,-13.52c4.55,-3.27 9.9,-4.24 15.36,-3.36c12.64,2.02 20.97,18.52 27.84,28.02c20.03,27.71 42.1,53.73 65.01,79.07c3.97,4.39 14.29,18.38 20.08,18.75c1.78,0.11 2.63,-0.53 3.98,-1.55c2.02,-4.05 0.88,-6.48 -1.16,-10.31c-2.91,-5.48 -6.76,-10.69 -10.17,-15.88l-13.82,-22.57c-13.16,-23.41 -23.37,-48 -34.56,-72.36l-16.53,-35.83c-2.9,-6.72 -6.26,-13.95 -7.29,-21.26c-0.7,-4.97 0.63,-9.34 3.79,-13.24c3.49,-4.31 8.93,-7.01 14.44,-7.44c7.3,-0.57 13.38,2.13 18.21,7.53c3.42,3.82 5.81,8.59 8.23,13.07l11.03,21.02l16.59,31.47c9.71,18.94 19.72,37.68 31.65,55.33c8.72,12.9 17.67,24.59 29.7,34.6c-0.08,-4.99 -1.49,-10.33 -2.47,-15.22c-3.63,-17.97 -9.71,-35.41 -13.94,-53.26l-15.05,-68.37c-3.59,-13.69 -15.92,-38.29 -12.76,-51.85c1.43,-6.15 4.55,-11.04 10.05,-14.32c3.1,-1.85 6.32,-2.49 9.84,-2.94c8.26,0.45 15.01,3.68 19.85,10.59c3.69,5.26 5.67,12.54 7.4,18.66l6.04,21.26l17.67,60.92l14.1,46.3c5.99,18.5 12.8,37.36 22.91,54.06c5.56,9.18 12.72,17.77 21.76,23.7c4.62,3.04 9.94,4.59 15.44,3.32c5.43,-1.26 13.58,-5.66 15.26,-11.43c1.58,-5.41 -0.59,-13.97 -1.08,-19.66c-2.59,-30.6 -5.14,-65.95 11.64,-93.17c4.86,-7.89 13.51,-15.19 22.7,-17.19c4.89,-1.06 9.83,-0.76 14.09,2.09c2.55,1.7 4.23,4.33 4.68,7.37c1.61,10.88 -3.43,23.71 -5.05,34.57c-1.47,9.86 -2.29,19.76 -2.32,29.74c-0.04,14.66 1.19,29.17 3.76,43.62c2.47,13.87 5.94,27.14 7.29,41.25c1.23,12.88 0.67,25.84 -1.22,38.62c-3.13,21.15 -10.48,41.55 -19.38,60.91l-13.9,27.13c-6.25,13.79 -7.22,27.77 -5.45,42.7c4.65,39.03 23,76.88 38.42,112.66c12.09,28.06 24.77,56.74 33.67,85.99c4.33,14.23 7.37,28.54 9.94,43.17c7.77,-49.12 27.19,-94.87 46.97,-140.18c12.36,-28.32 25.9,-57.38 32.12,-87.8c4.11,-20.09 4.07,-41.41 -4.94,-60.2c-3.77,-7.87 -8.49,-15.2 -12.12,-23.18c-9.85,-21.68 -17.72,-44.65 -20.6,-68.37c-2.86,-23.56 -2.11,-47.6 2.36,-70.92c2.22,-11.6 5.7,-22.91 6.56,-34.75c1.11,-15.49 0.31,-31.02 -1.8,-46.38c-1.09,-7.94 -2.88,-15.94 -3.5,-23.91c-0.29,-3.75 0.19,-7.77 2.86,-10.64c2.47,-2.66 6.48,-3.98 10.04,-4.12c8.12,-0.31 16.19,4.64 21.74,10.16c21.62,21.53 21.48,60.13 19.98,88.36c-0.5,9.34 -1.88,19.14 -1.61,28.46c0.11,3.8 1.36,6.28 4.11,8.89c4.09,3.88 9.71,6.77 15.45,6.41c30.41,-1.87 56.17,-91.72 64.16,-117.48l17.9,-60.95l5.23,-21.24c2.21,-10.02 3.43,-22.57 10.39,-30.51c4.29,-4.9 10.26,-7.72 16.78,-7.88c5.87,-0.14 11.12,2.31 15.15,6.52c4.84,5.06 5.84,12.15 5.48,18.86c-0.42,7.94 -2.48,16.1 -4.33,23.81l-10.66,41.41l-15.96,75.43l-3.86,17.6c-0.67,3.12 -1.82,6.96 -1.65,10.15c0.12,2.28 1.02,2.98 2.52,4.48c1.14,0.43 2.11,0.84 3.35,0.72c2.22,-0.22 3.77,-1.17 5.22,-2.81c5.2,-5.87 9.38,-14.17 13.5,-20.86l32.28,-55.23l18.86,-36.88c4.9,-9.65 9.98,-20.15 16.65,-28.69c4.87,-6.23 10.96,-10.77 19.1,-11.56c4.58,-0.44 9.89,1.38 13.38,4.35c6.04,5.13 7.79,13.28 6.46,20.85c-1.28,7.3 -5.18,13.58 -8.76,19.94l-12.12,22.11l-42.5,86.53l-13.76,23.04l-7.32,10.49c-1.11,1.53 -2.74,3.24 -3.09,5.12c-0.13,0.71 -0.07,1.63 0.04,2.34c0.26,1.74 1.49,3.2 2.97,4.09c2.49,1.5 6.42,0.9 8.75,-0.64c4.39,-2.89 8,-8.11 11.33,-12.14l24.72,-31.75l42.9,-52.65c6.48,-7.86 12.82,-17.62 20.36,-24.38c3,-2.69 6.71,-4.32 10.68,-4.96c6.04,-0.98 11.97,0.51 16.85,4.15c4.18,3.11 6.99,7.62 7.68,12.82c1.26,8.99 -2.36,16.87 -7.77,23.8z" fill="#8b2635" id="svg_15"/>
  <path d="m966.86,431.87c-3.13,-0.5 -6.67,-0.74 -9.62,-1.87c-0.74,-5.9 -2.29,-11.38 -5.31,-16.54c-5.56,-9.49 -14.36,-15.71 -24.98,-18.41c-11.06,-2.81 -23.87,-1.15 -33.67,4.79l-0.75,0.46c-1.95,-1.54 -3.53,-3.64 -5.15,-5.51c15.44,-8.54 29.68,-13.17 47.28,-14.32c13.37,-0.23 26.95,2.32 39.01,8.2c20.07,9.78 34.7,26.29 41.96,47.47c-5.28,-1.05 -10.66,-2.45 -16.02,-2.95c-10.85,-1.02 -21.84,-0.4 -32.75,-1.32z" fill="#397367" id="svg_16"/>
  <path d="m218.79,433.74c-18.57,4.13 -38.08,2.15 -56.83,0.54l-0.06,-0.58c3.43,-8.28 7.2,-16.39 13.07,-23.26c15.3,-17.92 39.14,-27.09 62.12,-28.74c16.78,-1.06 36.67,3.92 52.22,9.87l-8.3,5.15c-0.23,0.15 -1.96,1.42 -2.17,1.43c-1.55,0.06 -6.43,-2.97 -8.43,-3.55c-3.28,-0.95 -6.94,-1.24 -10.35,-1.16c-11.04,0.28 -20.97,3.94 -28.58,12.12c-6.1,6.56 -10.1,15.28 -9.71,24.35c0.05,1.2 0.17,1.92 -0.37,3.02l-2.61,0.81z" fill="#397367" id="svg_17" transform="matrix(1, 0, 0, 1, 0, 0)"/>
  <path d="m1084.41,481.03l-1.23,-0.54c-1.07,-13.22 -0.88,-27.21 3.47,-39.85c9.23,-26.88 30.48,-45.99 55.49,-58.28l0.91,0.53c0.22,11.46 -0.13,22.6 -2.84,33.81c-2.14,8.85 -5.69,18.33 -10.71,25.96c-10.89,16.55 -28.53,28.17 -45.09,38.37z" fill="#397367" id="svg_18"/>
  <path d="m90.92,484.77c-0.29,1.35 -0.07,1.83 -1.23,2.66l-27.79,-23.23c-16.96,-16.09 -25.48,-36.65 -28.17,-59.64c-0.83,-7.1 -0.69,-14.56 -0.87,-21.72c16.71,7.44 35.74,21.37 46.33,36.29c14.43,20.32 15.8,41.66 11.73,65.64z" fill="#397367" id="svg_19" transform="matrix(1, 0, 0, 1, 0, 0)"/>
  <path d="m1174.15,541c1.11,45.52 -1.53,90 -10.57,134.72c-8.3,41.05 -20.15,81.19 -36.47,119.79c-44.39,105 -120.83,199.84 -216.02,262.99c-29.42,19.52 -60.74,37.23 -93.13,51.33c-87.09,37.91 -183.98,53.74 -278.64,45.87c-24.16,-2.01 -47.87,-5.97 -71.61,-10.8c-147.52,-30.04 -283.59,-124.64 -366.35,-249.9c-76.46,-115.74 -111.75,-256.25 -98.7,-394.42c1.84,-19.53 4.12,-39.17 8.06,-58.4l0.63,0.02c1.53,2.32 1.9,5.88 2.88,8.54l9.38,23.68c7.36,17.49 15.84,34 24.93,50.64c8.06,14.76 16.51,29.89 27.19,42.94c0.11,0.14 0.28,0.25 0.34,0.42c0.52,1.55 0.4,4.5 0.56,6.23l1.64,16.77l6.2,44.71c11.86,70.36 38.1,136.3 76.04,196.59c18.8,29.87 42.23,58.15 67.07,83.16c47.17,47.49 102.91,86.5 164.61,112.78c29.87,12.72 61.1,22.12 92.74,29.24c13.57,3.05 27.54,4.94 41.32,6.73c114.81,14.92 233.32,-12.31 330.92,-74.41c78.58,-50 145.12,-123.69 186.21,-207.27c18.18,-36.97 31.57,-76.74 40.74,-116.87c4.61,-20.16 7.96,-40.91 9.96,-61.48l1.88,-26.7c0.15,-2.84 -0.29,-7.94 0.55,-10.52c0.88,-2.7 4.4,-6.26 6.23,-8.63l12.97,-17.62c16,-23.45 29.09,-49 39.75,-75.28c3.07,-7.58 6.51,-15.43 8.24,-23.43l0.23,-1.08l10.22,99.66z" fill="#003f7f" id="svg_20"/>
  <path d="m1047.81,701.4l-0.54,0.72l0.54,-0.72z" id="svg_21"/>
 </g>
</svg>